<svg xmlns="http://www.w3.org/2000/svg" viewBox="0 0 800 500" preserveAspectRatio="xMidYMid meet">
  <defs>
    <linearGradient id="g1" x1="0" x2="1">
      <stop offset="0" stop-color="#0d6efd" stop-opacity="0.9"/>
      <stop offset="1" stop-color="#6fb3ff" stop-opacity="0.8"/>
    </linearGradient>
  </defs>
  <rect width="100%" height="100%" fill="none"/>
  <g transform="translate(40,40)">
    <rect x="0" y="0" width="420" height="300" rx="18" fill="#fff" stroke="#e6f0ff"/>
    <path d="M340 40c40 0 80 24 80 64v120c0 40-40 64-80 64H80c-40 0-80-24-80-64V104c0-40 40-64 80-64h260z" fill="url(#g1)" opacity="0.12"/>
    <g transform="translate(30,24)">
      <circle cx="300" cy="60" r="36" fill="#fff" stroke="#dbeeff"/>
      <rect x="20" y="120" width="120" height="18" rx="4" fill="#e9f2ff"/>
      <rect x="20" y="148" width="220" height="10" rx="5" fill="#f6fbff"/>
      <rect x="20" y="168" width="180" height="10" rx="5" fill="#f6fbff"/>
      <g transform="translate(260,120)">
        <rect width="120" height="80" rx="8" fill="#fff" stroke="#e3f0ff"/>
        <path d="M20 40h80" stroke="#0d6efd" stroke-width="6" stroke-linecap="round"/>
      </g>
    </g>
  </g>
</svg>